<svg id="Layer_1" data-name="Layer 1" xmlns="http://www.w3.org/2000/svg" viewBox="0 0 767.17 245.29"><defs><style>.cls-1{fill:#fbb03b;}.cls-2{fill:#fff;}.cls-3{fill:#ffc55f;}.cls-4{fill:#f7931e;}.cls-5{font-size:100px;fill:#ffa133;font-family:MontserratAlternates-SemiBold, Montserrat Alternates;font-weight:600;}.cls-6{letter-spacing:-0.01em;}.cls-7{letter-spacing:-0.02em;}</style></defs><title>PayCash_logo_text</title><path class="cls-1" d="M228,475.72a29.12,29.12,0,0,1-16.2-4.89l-.8-.54a27.16,27.16,0,0,1-11.87-17.8,25.88,25.88,0,0,1,4.47-19.87l83.19-116.11a28.21,28.21,0,0,1,23-11.55A29.16,29.16,0,0,1,326,309.85l.8.54a27.19,27.19,0,0,1,11.87,17.8,25.85,25.85,0,0,1-4.48,19.87L251,464.17a28.21,28.21,0,0,1-23,11.55Z" transform="translate(-145.22 -260.73)"/><path class="cls-2" d="M309.74,305.46a28.6,28.6,0,0,1,15.93,4.81l.8.53a26.69,26.69,0,0,1,11.66,17.48,25.39,25.39,0,0,1-4.39,19.48L250.56,463.88A27.74,27.74,0,0,1,228,475.22a28.59,28.59,0,0,1-15.92-4.81l-.8-.53a26.69,26.69,0,0,1-11.66-17.48A25.35,25.35,0,0,1,204,432.92L287.16,316.8a27.72,27.72,0,0,1,22.58-11.34m0-1a28.64,28.64,0,0,0-23.39,11.76L203.17,432.33c-8.94,12.47-5.57,29.65,7.52,38.38l.8.53a29.62,29.62,0,0,0,16.48,5,28.66,28.66,0,0,0,23.4-11.76l83.18-116.11c8.93-12.47,5.57-29.65-7.52-38.38l-.8-.53a29.65,29.65,0,0,0-16.49-5Z" transform="translate(-145.22 -260.73)"/><path class="cls-3" d="M173.38,443.78a21.72,21.72,0,0,1-14.14-5.24l-4.66-3.93c-10.1-8.51-11.81-24.43-3.81-35.48l92.69-128.07a22.91,22.91,0,0,1,18.59-9.83,21.67,21.67,0,0,1,14.13,5.25l4.66,3.92c10.1,8.52,11.81,24.43,3.81,35.48L192,434a22.87,22.87,0,0,1-18.58,9.83Z" transform="translate(-145.22 -260.73)"/><path class="cls-2" d="M262.05,261.73a21.2,21.2,0,0,1,13.81,5.13l4.66,3.93c9.9,8.34,11.58,23.95,3.73,34.8L191.56,433.66a22.42,22.42,0,0,1-18.18,9.62,21.22,21.22,0,0,1-13.81-5.12l-4.67-3.93c-9.9-8.35-11.57-24-3.73-34.8l92.7-128.07a22.38,22.38,0,0,1,18.18-9.63m0-1a23.46,23.46,0,0,0-19,10l-92.7,128.07c-8.16,11.28-6.41,27.46,3.9,36.15l4.66,3.93a22.34,22.34,0,0,0,14.46,5.36,23.47,23.47,0,0,0,19-10l92.69-128.07c8.16-11.27,6.42-27.46-3.9-36.15l-4.66-3.93a22.31,22.31,0,0,0-14.45-5.36Z" transform="translate(-145.22 -260.73)"/><path class="cls-4" d="M283.74,505.52a25.58,25.58,0,0,1-15.39-5.15,27.62,27.62,0,0,1-5.84-37.78L326,372.45a26.11,26.11,0,0,1,21.27-11.16,25.53,25.53,0,0,1,15.38,5.15,27.61,27.61,0,0,1,5.85,37.78L305,494.36a26.09,26.09,0,0,1-21.26,11.16Z" transform="translate(-145.22 -260.73)"/><path class="cls-2" d="M347.27,361.79a25,25,0,0,1,15.08,5,27.1,27.1,0,0,1,5.74,37.09l-63.5,90.15A25.59,25.59,0,0,1,283.74,505a25,25,0,0,1-15.09-5,27.1,27.1,0,0,1-5.73-37.09l63.49-90.15a25.62,25.62,0,0,1,20.86-10.94m0-1a26.48,26.48,0,0,0-21.68,11.37L262.1,462.31a28.07,28.07,0,0,0,6,38.46h0A26.06,26.06,0,0,0,283.74,506a26.45,26.45,0,0,0,21.67-11.37L368.9,404.5A28.06,28.06,0,0,0,363,366h0a26.06,26.06,0,0,0-15.68-5.25Z" transform="translate(-145.22 -260.73)"/><text class="cls-5" transform="translate(260.55 190.55)"><tspan class="cls-6">P</tspan><tspan x="71.4" y="0">ay</tspan><tspan class="cls-7" x="208.1" y="0">C</tspan><tspan x="278.8" y="0">ash</tspan></text><text x="-145.22" y="-260.73"/></svg>