<svg id="Layer_1" data-name="Layer 1" xmlns="http://www.w3.org/2000/svg" viewBox="0 0 409.12 469.34"><defs><style>.cls-1{fill:#fbb03b;}.cls-2{fill:#fff;}.cls-3{fill:#ffce56;}.cls-4{fill:#f7931e;}</style></defs><title>PayCash_logo</title><path class="cls-1" d="M439.08,573.87a44.44,44.44,0,0,1-30.94-12.54L407,560.22c-18.66-18-19.52-48.68-1.93-68.5L570.81,305.07a46.66,46.66,0,0,1,34.75-15.92,44.46,44.46,0,0,1,30.94,12.54l1.15,1.11c18.66,17.95,19.52,48.68,1.93,68.5L473.83,558a46.66,46.66,0,0,1-34.75,15.92Z" transform="translate(-307.86 -164.53)"/><path class="cls-2" d="M605.56,289.65a43.94,43.94,0,0,1,30.59,12.4l1.16,1.11c18.46,17.77,19.31,48.19,1.89,67.8L473.46,557.62a46.19,46.19,0,0,1-34.38,15.75A43.92,43.92,0,0,1,408.49,561l-1.16-1.11c-18.46-17.77-19.31-48.19-1.89-67.8L571.18,305.4a46.18,46.18,0,0,1,34.38-15.75m0-1a47,47,0,0,0-35.13,16.09L404.69,491.39c-17.8,20.05-16.93,51,1.95,69.19l1.15,1.11a44.92,44.92,0,0,0,31.29,12.68,47,47,0,0,0,35.13-16.09L640,371.63c17.8-20.05,16.93-51-2-69.19l-1.16-1.11a44.87,44.87,0,0,0-31.28-12.68Z" transform="translate(-307.86 -164.53)"/><path class="cls-3" d="M362.43,497.92a44.44,44.44,0,0,1-30.94-12.54L323,477.17c-18.65-18-19.51-48.68-1.92-68.5L523.24,181A46.68,46.68,0,0,1,558,165a44.45,44.45,0,0,1,30.94,12.55l8.54,8.21c18.65,18,19.52,48.68,1.92,68.49L397.18,482a46.66,46.66,0,0,1-34.75,15.92Z" transform="translate(-307.86 -164.53)"/><path class="cls-2" d="M558,165.53a44,44,0,0,1,30.6,12.41l8.53,8.21c18.47,17.77,19.32,48.18,1.89,67.8L396.81,481.67a46.19,46.19,0,0,1-34.38,15.75A43.92,43.92,0,0,1,331.84,485l-8.54-8.21C304.84,459,304,428.62,321.41,409l202.2-227.71A46.18,46.18,0,0,1,558,165.53m0-1a46.91,46.91,0,0,0-35.12,16.09L320.66,408.34c-17.8,20.05-16.93,51,1.95,69.19l8.53,8.21a44.92,44.92,0,0,0,31.29,12.68,47,47,0,0,0,35.13-16.09l202.2-227.72c17.8-20,16.93-51-2-69.18l-8.53-8.21A44.88,44.88,0,0,0,558,164.53Z" transform="translate(-307.86 -164.53)"/><path class="cls-4" d="M538.72,633.37a44.47,44.47,0,0,1-30.94-12.55c-18.65-18-19.51-48.68-1.92-68.49L636.19,405.56a46.68,46.68,0,0,1,34.75-15.93,44.45,44.45,0,0,1,30.94,12.55c18.66,17.95,19.52,48.68,1.92,68.49L573.48,617.44a46.7,46.7,0,0,1-34.76,15.93Z" transform="translate(-307.86 -164.53)"/><path class="cls-2" d="M670.94,390.13a43.93,43.93,0,0,1,30.59,12.41c18.47,17.77,19.32,48.18,1.9,67.8L573.1,617.11a46.19,46.19,0,0,1-34.38,15.76,44,44,0,0,1-30.59-12.41c-18.46-17.77-19.32-48.18-1.89-67.8L636.56,405.89a46.2,46.2,0,0,1,34.38-15.76m0-1a46.92,46.92,0,0,0-35.12,16.1L505.49,552c-17.8,20-16.93,51,1.95,69.18h0a44.86,44.86,0,0,0,31.28,12.69,46.94,46.94,0,0,0,35.13-16.1L704.18,471c17.8-20.05,16.93-51-1.95-69.19h0a44.88,44.88,0,0,0-31.29-12.69Z" transform="translate(-307.86 -164.53)"/></svg>